# xmcd
#
# Track frame offsets:
# 150
# 10210
# 21847
# 31920
# 45752
# 58915
# 68967
# 81490
# 93575
# 103617
# 112947
# 126000
# 138555
# 151262
# 161432
#
# Disc length: 2327 seconds
#
#
# Revision: 0
# Processed by: cddbd v1.5.2PL0 Copyright (c) Steve Scherf et al.
# Submitted via: FreeRIP 2.943 
#
DISCID=bc09150f
DTITLE=Living the Blues  Raunchy Blues
DYEAR=1900
DGENRE=Blues
TTITLE0=Bull Mose Jackson  Big Then Inch Record
TTITLE1=Swollows  It Aint The Meat
TTITLE2=Julia Lee  My Man Stands Out
TTITLE3=Floyd Dixon  Too Much Jelly Roll
TTITLE4=Wynonie Harris  Keep On Churrnin
TTITLE5=Smiley Lewis  Can't Stop Lovin'You
TTITLE6=John Lee Hooker  I Rule My Den
TTITLE7=Eddie Davis  Mountain Oysters
TTITLE8=5 Royals  You Didn't Learn It At Home
TTITLE9=Big Mama Thorton  They Call Me Big Mama
TTITLE10=Pete "Guitarr" Lewis  Chocolate Pork Chop Man
TTITLE11=Li'l Son Jackson  Rockin' and Rollin' No 2
TTITLE12=Bid Joe Tuner  T.V. Mama
TTITLE13=Dave Bartholomew  My Ding-A-Ling
TTITLE14=Jesse Powell Orchestra and Fluffy Hunter  The Walkin' Blues
EXTD=
EXTT0=
EXTT1=
EXTT2=
EXTT3=
EXTT4=
EXTT5=
EXTT6=
EXTT7=
EXTT8=
EXTT9=
EXTT10=
EXTT11=
EXTT12=
EXTT13=
EXTT14=
PLAYORDER=
